<svg width="24" height="24" viewBox="0 0 24 24" fill="none" xmlns="http://www.w3.org/2000/svg">
<path d="M11.6667 0.333252C5.23633 0.333252 0 5.56958 0 11.9999C0 18.4303 5.23633 23.6666 11.6667 23.6666C18.097 23.6666 23.3333 18.4303 23.3333 11.9999C23.3333 5.56958 18.097 0.333252 11.6667 0.333252ZM11.6667 2.66659C16.8346 2.66659 21 6.83195 21 11.9999C21 16.6848 17.5775 20.5312 13.0885 21.2148V14.7799H15.8047L16.2285 12.0227H13.0885V10.5142C13.0885 9.3658 13.4622 8.34953 14.5332 8.34953H16.2559V5.93872C15.9551 5.90226 15.3125 5.81112 14.1048 5.81112C11.5801 5.81112 10.0944 7.1464 10.0944 10.1861V12.0227H7.49675V14.7799H10.0944V21.192C5.68294 20.4491 2.33333 16.6301 2.33333 11.9999C2.33333 6.83195 6.4987 2.66659 11.6667 2.66659Z" fill="#FCFCFC"/>
</svg>
