<svg width="138" height="52" viewBox="0 0 138 52" fill="none" xmlns="http://www.w3.org/2000/svg" className='svg-logo'>
<path d="M8.288 51.082C13.588 51.082 16.388 47.882 16.388 42.482V37.532H11.188V42.882C11.188 45.182 10.088 46.082 8.438 46.082C6.788 46.082 5.688 45.182 5.688 42.882V23.332C5.688 21.032 6.788 20.082 8.438 20.082C10.088 20.082 11.188 21.032 11.188 23.332V27.382H16.388V23.682C16.388 18.282 13.588 15.082 8.288 15.082C2.988 15.082 0.188 18.282 0.188 23.682V42.482C0.188 47.882 2.988 51.082 8.288 51.082Z" fill="#FCFCFC"/>
<path d="M24.2892 50.582H29.7892V35.682L36.4392 15.582H31.0892L27.3392 28.432H27.2392L23.4892 15.582H17.6392L24.2892 35.682V50.582Z" fill="#FCFCFC"/>
<path d="M45.788 51.082C51.088 51.082 53.888 47.882 53.888 42.482V37.532H48.688V42.882C48.688 45.182 47.588 46.082 45.938 46.082C44.288 46.082 43.188 45.182 43.188 42.882V23.332C43.188 21.032 44.288 20.082 45.938 20.082C47.588 20.082 48.688 21.032 48.688 23.332V27.382H53.888V23.682C53.888 18.282 51.088 15.082 45.788 15.082C40.488 15.082 37.688 18.282 37.688 23.682V42.482C37.688 47.882 40.488 51.082 45.788 51.082Z" fill="#FCFCFC"/>
<path d="M57.1786 50.582H71.7286V45.582H62.6786V15.582H57.1786V50.582Z" fill="#FCFCFC"/>
<path d="M74.3661 50.582H89.3661V45.582H79.8661V34.832H87.4161V29.832H79.8661V20.582H89.3661V15.582H74.3661V50.582Z" fill="#FCFCFC"/>
<path d="M92.5302 50.582H98.0302V35.332H105.13V30.332H98.0302V20.582H107.08V15.582H92.5302V50.582Z" fill="#FCFCFC"/>
<path d="M109.718 50.582H115.218V15.582H109.718V50.582Z" fill="#FCFCFC"/>
<path d="M117.837 50.582H123.037L127.137 38.382H127.237L131.237 50.582H137.037L130.687 32.682L136.737 15.582H131.537L127.737 26.882H127.637L123.937 15.582H118.137L124.187 32.682L117.837 50.582Z" fill="#FCFCFC"/>
<path d="M8.799 14.364C8.799 13.776 8.897 13.02 9.093 12.096C9.289 11.172 9.548 10.185 9.87 9.135C8.946 9.205 8.015 9.296 7.077 9.408C6.153 9.52 5.348 9.583 4.662 9.597C4.032 11.067 3.528 12.425 3.15 13.671C2.786 14.903 2.499 16.107 2.289 17.283C1.757 17.157 1.316 16.933 0.966 16.611C0.616 16.303 0.294 15.911 0 15.435C0.112 15.211 0.238 14.924 0.378 14.574C0.532 14.224 0.707 13.804 0.903 13.314C1.113 12.81 1.344 12.229 1.596 11.571C1.862 10.899 2.163 10.122 2.499 9.24C2.037 9.044 1.729 8.771 1.575 8.421C1.645 8.365 1.799 8.309 2.037 8.253C2.289 8.183 2.597 8.113 2.961 8.043L3.234 7.371C3.528 6.615 3.766 5.978 3.948 5.46C4.144 4.942 4.305 4.438 4.431 3.948C4.571 3.444 4.697 2.891 4.809 2.289C4.935 1.687 5.082 0.924 5.25 0C5.838 0.112 6.37 0.371 6.846 0.777C7.336 1.183 7.756 1.673 8.106 2.247C7.98 2.415 7.826 2.667 7.644 3.003C7.462 3.339 7.259 3.745 7.035 4.221C6.825 4.683 6.594 5.208 6.342 5.796C6.09 6.37 5.817 6.979 5.523 7.623C6.391 7.511 7.266 7.406 8.148 7.308C9.044 7.21 9.835 7.14 10.521 7.098C10.773 6.37 11.032 5.663 11.298 4.977C11.578 4.277 11.851 3.64 12.117 3.066C12.383 2.492 12.635 1.988 12.873 1.554C13.125 1.12 13.349 0.798 13.545 0.588C13.685 0.602 13.867 0.658 14.091 0.756C14.329 0.84 14.567 0.945 14.805 1.071C15.043 1.197 15.26 1.337 15.456 1.491C15.652 1.631 15.785 1.764 15.855 1.89C15.603 2.128 15.351 2.436 15.099 2.814C14.847 3.192 14.595 3.626 14.343 4.116C14.105 4.606 13.867 5.138 13.629 5.712C13.391 6.286 13.167 6.881 12.957 7.497C13.237 7.749 13.377 8.064 13.377 8.442C13.377 8.708 13.321 8.953 13.209 9.177C13.083 9.149 12.957 9.135 12.831 9.135C12.705 9.121 12.572 9.107 12.432 9.093C12.194 9.849 11.977 10.598 11.781 11.34C11.585 12.082 11.417 12.789 11.277 13.461C11.151 14.133 11.046 14.749 10.962 15.309C10.892 15.869 10.857 16.338 10.857 16.716C10.857 16.856 10.857 16.968 10.857 17.052C10.871 17.136 10.885 17.206 10.899 17.262C10.591 17.248 10.367 17.192 10.227 17.094C10.087 17.01 9.982 16.912 9.912 16.8C9.842 16.702 9.779 16.597 9.723 16.485C9.667 16.387 9.576 16.31 9.45 16.254C9.352 16.212 9.261 16.114 9.177 15.96C9.093 15.806 9.023 15.631 8.967 15.435C8.911 15.239 8.869 15.043 8.841 14.847C8.813 14.651 8.799 14.49 8.799 14.364Z" fill="#FCFCFC"/>
<path d="M16.6817 16.317C15.8837 16.233 15.2467 15.883 14.7707 15.267C14.2947 14.651 14.0567 13.867 14.0567 12.915C14.0567 12.355 14.1407 11.774 14.3087 11.172C14.4767 10.57 14.7147 9.989 15.0227 9.429C15.3307 8.855 15.6947 8.316 16.1147 7.812C16.5347 7.308 16.9897 6.874 17.4797 6.51C18.2497 5.936 18.9707 5.649 19.6427 5.649C20.0907 5.887 20.5317 6.384 20.9657 7.14C21.0357 7.14 21.0987 7.14 21.1547 7.14C21.2107 7.126 21.2737 7.119 21.3437 7.119C22.0857 7.119 22.4567 7.777 22.4567 9.093C22.4567 9.975 22.3097 10.815 22.0157 11.613C21.7357 12.397 21.3367 13.111 20.8187 13.755C20.3147 14.399 19.7057 14.945 18.9917 15.393C18.2917 15.827 17.5217 16.135 16.6817 16.317ZM17.7527 9.702C17.5147 10.024 17.2907 10.374 17.0807 10.752C16.8707 11.13 16.6887 11.515 16.5347 11.907C16.3807 12.285 16.2617 12.656 16.1777 13.02C16.0937 13.37 16.0517 13.685 16.0517 13.965C16.0517 14.301 16.1077 14.623 16.2197 14.931C16.3317 15.239 16.4577 15.414 16.5977 15.456C17.2277 15.316 17.8017 15.057 18.3197 14.679C18.8517 14.287 19.3067 13.804 19.6847 13.23C20.0767 12.656 20.3777 12.005 20.5877 11.277C20.8117 10.549 20.9237 9.772 20.9237 8.946C20.9237 8.582 20.9027 8.295 20.8607 8.085C20.8187 7.875 20.7487 7.693 20.6507 7.539C20.0347 7.721 19.4817 8.015 18.9917 8.421C18.5157 8.827 18.1027 9.254 17.7527 9.702Z" fill="#FCFCFC"/>
<path d="M29.1852 15.12C28.9192 14.896 28.7372 14.616 28.6392 14.28C28.5552 13.944 28.5132 13.657 28.5132 13.419C28.5132 13.125 28.5482 12.873 28.6182 12.663C28.5622 12.663 28.4362 12.775 28.2402 12.999C28.0442 13.223 27.8272 13.489 27.5892 13.797C27.3652 14.105 27.1412 14.406 26.9172 14.7C26.6932 14.994 26.5252 15.211 26.4132 15.351C26.2312 15.547 26.0562 15.701 25.8882 15.813C25.7342 15.925 25.6082 15.988 25.5102 16.002C25.2862 15.988 25.0482 15.939 24.7962 15.855C24.5582 15.785 24.3272 15.68 24.1032 15.54C23.8932 15.4 23.7042 15.232 23.5362 15.036C23.3822 14.84 23.2772 14.616 23.2212 14.364C23.2212 13.972 23.2282 13.65 23.2422 13.398C23.2702 13.146 23.3192 12.873 23.3892 12.579C23.5152 12.047 23.6972 11.445 23.9352 10.773C24.1872 10.101 24.4742 9.443 24.7962 8.799C25.1182 8.141 25.4752 7.532 25.8672 6.972C26.2732 6.398 26.7002 5.95 27.1482 5.628C27.2742 5.628 27.4212 5.642 27.5892 5.67C27.7572 5.684 27.9252 5.719 28.0932 5.775C28.2752 5.831 28.4432 5.901 28.5972 5.985C28.7652 6.055 28.9052 6.153 29.0172 6.279C28.8912 6.419 28.5692 6.888 28.0512 7.686C27.5472 8.484 26.9802 9.632 26.3502 11.13C26.2802 11.284 26.1962 11.508 26.0982 11.802C26.0002 12.096 25.9022 12.404 25.8042 12.726C25.7062 13.048 25.6222 13.363 25.5522 13.671C25.4962 13.979 25.4682 14.224 25.4682 14.406C25.4682 14.518 25.4822 14.602 25.5102 14.658C25.5522 14.714 25.5872 14.756 25.6152 14.784C25.8252 14.7 26.0912 14.469 26.4132 14.091C26.7352 13.713 27.1832 13.132 27.7572 12.348C27.8972 12.152 28.0582 11.928 28.2402 11.676C28.4362 11.424 28.6322 11.158 28.8282 10.878C29.0242 10.584 29.2062 10.283 29.3742 9.975C29.5562 9.667 29.7032 9.359 29.8152 9.051C29.8712 8.883 29.9412 8.687 30.0252 8.463C30.1232 8.225 30.2352 7.98 30.3612 7.728C30.5012 7.476 30.6552 7.224 30.8232 6.972C31.0052 6.706 31.2152 6.461 31.4532 6.237C31.6352 6.237 31.8312 6.258 32.0412 6.3C32.2512 6.342 32.4472 6.398 32.6292 6.468C32.8252 6.524 32.9932 6.594 33.1332 6.678C33.2732 6.748 33.3782 6.825 33.4482 6.909C33.1962 7.525 32.9162 8.134 32.6082 8.736C32.3002 9.338 32.0132 9.933 31.7472 10.521C31.4812 11.095 31.2572 11.669 31.0752 12.243C30.8932 12.817 30.8022 13.377 30.8022 13.923C30.8022 14.217 30.8232 14.476 30.8652 14.7C30.9212 14.91 30.9772 15.092 31.0332 15.246C31.0892 15.386 31.1382 15.505 31.1802 15.603C31.2362 15.701 31.2642 15.785 31.2642 15.855C31.2642 15.869 31.2502 15.89 31.2222 15.918C31.2082 15.932 31.1942 15.939 31.1802 15.939C31.0822 15.939 30.9562 15.918 30.8022 15.876C30.6482 15.834 30.4732 15.771 30.2772 15.687C30.0952 15.617 29.9062 15.533 29.7102 15.435C29.5282 15.337 29.3532 15.232 29.1852 15.12Z" fill="#FCFCFC"/>
<path d="M41.0952 7.224C41.0812 7.49 41.0322 7.77 40.9482 8.064C40.8782 8.344 40.7872 8.603 40.6752 8.841C40.5632 9.065 40.4442 9.254 40.3182 9.408C40.1922 9.562 40.0732 9.639 39.9612 9.639C39.8072 9.625 39.7162 9.52 39.6882 9.324C39.6882 9.282 39.7022 9.219 39.7302 9.135C39.7722 9.037 39.8142 8.932 39.8562 8.82C39.8982 8.708 39.9332 8.596 39.9612 8.484C40.0032 8.372 40.0242 8.274 40.0242 8.19C40.0242 7.994 39.9752 7.833 39.8772 7.707C39.7932 7.567 39.6742 7.497 39.5202 7.497C38.9602 7.497 38.5332 7.847 38.2392 8.547C37.9452 9.247 37.7982 10.276 37.7982 11.634C37.7982 11.774 37.8052 11.858 37.8192 11.886C38.1132 11.872 38.3722 11.865 38.5962 11.865C38.8342 11.851 39.0652 11.844 39.2892 11.844C39.3032 11.872 39.3102 11.928 39.3102 12.012C39.3102 12.138 39.2822 12.229 39.2262 12.285C38.9042 12.355 38.6452 12.418 38.4492 12.474C38.2672 12.516 38.1272 12.558 38.0292 12.6C37.9312 12.642 37.8682 12.691 37.8402 12.747C37.8262 12.789 37.8192 12.852 37.8192 12.936C37.8192 13.048 37.8192 13.16 37.8192 13.272C37.8332 13.384 37.8402 13.524 37.8402 13.692C37.8402 14.868 37.5182 15.813 36.8742 16.527C36.2442 17.241 35.3622 17.654 34.2282 17.766C34.0322 17.752 33.8292 17.696 33.6192 17.598C33.4092 17.5 33.2062 17.374 33.0102 17.22C32.8282 17.066 32.6672 16.891 32.5272 16.695C32.3872 16.513 32.2892 16.324 32.2332 16.128C32.2332 15.596 32.3452 15.092 32.5692 14.616C32.7932 14.126 33.0942 13.699 33.4722 13.335C33.8642 12.957 34.3192 12.656 34.8372 12.432C35.3692 12.194 35.9432 12.054 36.5592 12.012C36.5592 11.662 36.5242 11.319 36.4542 10.983C36.3842 10.647 36.3072 10.325 36.2232 10.017C36.1532 9.695 36.0832 9.387 36.0132 9.093C35.9432 8.785 35.9082 8.484 35.9082 8.19C35.9082 7.812 35.9852 7.441 36.1392 7.077C36.2932 6.699 36.4962 6.356 36.7482 6.048C37.0002 5.726 37.2942 5.453 37.6302 5.229C37.9662 5.005 38.3162 4.851 38.6802 4.767C38.8342 4.809 39.0372 4.935 39.2892 5.145C39.5552 5.341 39.8142 5.565 40.0662 5.817C40.3182 6.069 40.5422 6.328 40.7382 6.594C40.9342 6.846 41.0532 7.056 41.0952 7.224ZM34.1652 16.8C34.5012 16.66 34.8162 16.457 35.1102 16.191C35.4182 15.925 35.6842 15.624 35.9082 15.288C36.1322 14.952 36.3072 14.595 36.4332 14.217C36.5732 13.839 36.6432 13.468 36.6432 13.104C36.3632 13.146 36.0552 13.279 35.7192 13.503C35.3832 13.713 35.0682 13.972 34.7742 14.28C34.4802 14.574 34.2352 14.882 34.0392 15.204C33.8432 15.526 33.7452 15.806 33.7452 16.044C33.7452 16.352 33.8852 16.604 34.1652 16.8Z" fill="#FCFCFC"/>
<path d="M42.349 7.539C42.279 7.455 42.216 7.28 42.16 7.014C42.104 6.734 42.076 6.496 42.076 6.3C42.44 6.328 42.79 6.356 43.126 6.384C43.462 6.398 43.77 6.412 44.05 6.426C44.26 6.006 44.484 5.593 44.722 5.187C44.974 4.767 45.212 4.389 45.436 4.053C45.674 3.703 45.891 3.409 46.087 3.171C46.297 2.933 46.458 2.779 46.57 2.709C46.71 2.709 46.885 2.737 47.095 2.793C47.319 2.835 47.543 2.898 47.767 2.982C47.991 3.052 48.194 3.129 48.376 3.213C48.558 3.297 48.684 3.381 48.754 3.465C48.334 3.997 47.97 4.494 47.662 4.956C47.368 5.404 47.046 5.922 46.696 6.51C46.976 6.51 47.256 6.503 47.536 6.489C47.83 6.475 48.124 6.454 48.418 6.426C48.488 6.496 48.544 6.587 48.586 6.699C48.628 6.797 48.649 6.902 48.649 7.014C47.963 7.266 47.13 7.406 46.15 7.434C45.8 8.106 45.485 8.778 45.205 9.45C44.939 10.108 44.708 10.745 44.512 11.361C44.33 11.977 44.183 12.558 44.071 13.104C43.973 13.65 43.924 14.14 43.924 14.574C43.924 15.19 44.155 15.533 44.617 15.603C45.037 15.547 45.436 15.442 45.814 15.288C46.192 15.134 46.528 14.938 46.822 14.7C46.906 14.826 46.955 14.931 46.969 15.015C46.885 15.141 46.738 15.288 46.528 15.456C46.332 15.624 46.115 15.785 45.877 15.939C45.639 16.107 45.408 16.247 45.184 16.359C44.96 16.471 44.792 16.534 44.68 16.548C44.33 16.534 43.98 16.457 43.63 16.317C43.28 16.177 42.958 16.002 42.664 15.792C42.384 15.582 42.153 15.351 41.971 15.099C41.789 14.833 41.698 14.574 41.698 14.322C41.698 13.986 41.74 13.566 41.824 13.062C41.922 12.544 42.055 11.984 42.223 11.382C42.391 10.78 42.587 10.15 42.811 9.492C43.035 8.834 43.28 8.183 43.546 7.539H42.349Z" fill="#FCFCFC"/>
<path d="M50.9708 16.317C50.1728 16.233 49.5358 15.883 49.0598 15.267C48.5838 14.651 48.3458 13.867 48.3458 12.915C48.3458 12.355 48.4298 11.774 48.5978 11.172C48.7658 10.57 49.0038 9.989 49.3118 9.429C49.6198 8.855 49.9838 8.316 50.4038 7.812C50.8238 7.308 51.2788 6.874 51.7688 6.51C52.5388 5.936 53.2598 5.649 53.9318 5.649C54.3798 5.887 54.8208 6.384 55.2548 7.14C55.3248 7.14 55.3878 7.14 55.4438 7.14C55.4998 7.126 55.5628 7.119 55.6328 7.119C56.3748 7.119 56.7458 7.777 56.7458 9.093C56.7458 9.975 56.5988 10.815 56.3048 11.613C56.0248 12.397 55.6258 13.111 55.1078 13.755C54.6038 14.399 53.9948 14.945 53.2808 15.393C52.5808 15.827 51.8108 16.135 50.9708 16.317ZM52.0418 9.702C51.8038 10.024 51.5798 10.374 51.3698 10.752C51.1598 11.13 50.9778 11.515 50.8238 11.907C50.6698 12.285 50.5508 12.656 50.4668 13.02C50.3828 13.37 50.3408 13.685 50.3408 13.965C50.3408 14.301 50.3968 14.623 50.5088 14.931C50.6208 15.239 50.7468 15.414 50.8868 15.456C51.5168 15.316 52.0908 15.057 52.6088 14.679C53.1408 14.287 53.5958 13.804 53.9738 13.23C54.3658 12.656 54.6668 12.005 54.8768 11.277C55.1008 10.549 55.2128 9.772 55.2128 8.946C55.2128 8.582 55.1918 8.295 55.1498 8.085C55.1078 7.875 55.0378 7.693 54.9398 7.539C54.3238 7.721 53.7708 8.015 53.2808 8.421C52.8048 8.827 52.3918 9.254 52.0418 9.702Z" fill="#FCFCFC"/>
<path d="M61.1643 5.397C61.5283 5.509 61.8713 5.761 62.1933 6.153C62.5153 6.531 62.7533 6.951 62.9073 7.413C62.7533 7.791 62.5153 8.246 62.1933 8.778C61.8713 9.31 61.5493 9.856 61.2273 10.416C60.9053 10.962 60.6113 11.487 60.3453 11.991C60.0933 12.481 59.9463 12.887 59.9043 13.209C60.1283 12.971 60.3733 12.698 60.6393 12.39C60.9193 12.068 61.1853 11.753 61.4373 11.445C61.7033 11.123 61.9483 10.836 62.1723 10.584C62.3963 10.318 62.5713 10.122 62.6973 9.996C62.9633 9.716 63.2783 9.394 63.6423 9.03C64.0063 8.652 64.3843 8.302 64.7763 7.98C65.1823 7.644 65.5883 7.364 65.9943 7.14C66.4003 6.902 66.7713 6.783 67.1073 6.783C67.4713 6.783 67.7723 6.909 68.0103 7.161C68.2623 7.399 68.4583 7.651 68.5983 7.917C68.5983 7.945 68.5423 7.987 68.4303 8.043C68.3323 8.085 68.1853 8.218 67.9893 8.442C67.7933 8.694 67.5693 9.044 67.3173 9.492C67.0793 9.926 66.8413 10.402 66.6033 10.92C66.3793 11.424 66.1903 11.942 66.0363 12.474C65.8823 13.006 65.8053 13.489 65.8053 13.923C65.8053 14.273 65.8473 14.497 65.9313 14.595C66.0293 14.693 66.1623 14.742 66.3303 14.742C66.4843 14.742 66.6453 14.707 66.8133 14.637C66.9813 14.567 67.1143 14.532 67.2123 14.532C67.2683 14.56 67.3103 14.623 67.3383 14.721C67.3803 14.805 67.4013 14.882 67.4013 14.952C67.2893 15.05 67.1563 15.148 67.0023 15.246C66.8483 15.344 66.6873 15.435 66.5193 15.519C66.3513 15.603 66.1833 15.673 66.0153 15.729C65.8613 15.785 65.7213 15.813 65.5953 15.813C65.1893 15.813 64.8533 15.75 64.5873 15.624C64.3353 15.512 64.1323 15.358 63.9783 15.162C63.8383 14.966 63.7403 14.735 63.6843 14.469C63.6283 14.189 63.6003 13.895 63.6003 13.587C63.6003 13.419 63.6143 13.23 63.6423 13.02C63.6703 12.81 63.7263 12.565 63.8103 12.285C63.8943 11.991 64.0133 11.648 64.1673 11.256C64.3213 10.85 64.5173 10.367 64.7553 9.807C64.7273 9.807 64.5383 9.905 64.1883 10.101C63.8383 10.297 63.4603 10.598 63.0543 11.004C62.3963 11.634 61.8013 12.257 61.2693 12.873C60.7513 13.489 60.2193 14.175 59.6733 14.931C59.3653 15.365 59.0923 15.729 58.8543 16.023C58.6303 16.331 58.4343 16.534 58.2663 16.632C57.9723 16.464 57.7553 16.226 57.6153 15.918C57.4753 15.624 57.3703 15.316 57.3003 14.994C57.3003 14.728 57.3353 14.392 57.4053 13.986C57.4893 13.58 57.5943 13.132 57.7203 12.642C57.8603 12.138 58.0283 11.613 58.2243 11.067C58.4203 10.521 58.6373 9.975 58.8753 9.429C59.4073 8.197 59.8903 7.231 60.3243 6.531C60.7723 5.831 61.0523 5.453 61.1643 5.397Z" fill="#FCFCFC"/>
</svg>
