<svg width="228" height="57" viewBox="0 0 228 57" fill="none" xmlns="http://www.w3.org/2000/svg">
<path d="M1.722 27.6H6.342V39.99L12.222 27.6H16.842L11.34 38.394L16.926 57H12.096L8.19 43.896L6.342 47.634V57H1.722V27.6ZM22.6826 27.6H28.9406L33.7286 57H29.1086L28.2686 51.162V51.246H23.0186L22.1786 57H17.8946L22.6826 27.6ZM27.7226 47.256L25.6646 32.724H25.5806L23.5646 47.256H27.7226ZM35.97 27.6H42.774C45.07 27.6 46.792 28.216 47.94 29.448C49.088 30.68 49.662 32.486 49.662 34.866V37.764C49.662 40.144 49.088 41.95 47.94 43.182C46.792 44.414 45.07 45.03 42.774 45.03H40.59V57H35.97V27.6ZM42.774 40.83C43.53 40.83 44.09 40.62 44.454 40.2C44.846 39.78 45.042 39.066 45.042 38.058V34.572C45.042 33.564 44.846 32.85 44.454 32.43C44.09 32.01 43.53 31.8 42.774 31.8H40.59V40.83H42.774ZM52.1712 27.6H56.7912V39.99L62.6712 27.6H67.2912L61.7892 38.394L67.3752 57H62.5452L58.6392 43.896L56.7912 47.634V57H52.1712V27.6ZM73.1318 27.6H79.3898L84.1778 57H79.5578L78.7178 51.162V51.246H73.4678L72.6278 57H68.3438L73.1318 27.6ZM78.1718 47.256L76.1138 32.724H76.0298L74.0138 47.256H78.1718Z" fill="#FCFCFC"/>
<path d="M8.684 19.758C9.75867 18.1633 10.816 16.6987 11.856 15.364C12.9133 14.012 13.9187 12.8507 14.872 11.88C15.8253 10.9093 16.7007 10.1553 17.498 9.618C18.2953 9.08067 18.9887 8.812 19.578 8.812C19.8033 8.812 20.046 8.89867 20.306 9.072C20.5833 9.24533 20.8347 9.47067 21.06 9.748C21.3027 10.0253 21.502 10.3287 21.658 10.658C21.814 10.97 21.892 11.2733 21.892 11.568C20.8173 11.9147 19.76 12.374 18.72 12.946C17.6973 13.5007 16.7093 14.1507 15.756 14.896C14.82 15.624 13.9187 16.4387 13.052 17.34C12.2027 18.2413 11.4313 19.2033 10.738 20.226C11.0153 20.9367 11.3533 21.6993 11.752 22.514C12.168 23.3113 12.6187 24.0913 13.104 24.854C13.5893 25.5993 14.1093 26.2927 14.664 26.934C15.2187 27.5753 15.782 28.0867 16.354 28.468C16.2673 28.6587 16.12 28.8407 15.912 29.014C15.704 29.1873 15.4787 29.3433 15.236 29.482C14.9933 29.638 14.7333 29.7593 14.456 29.846C14.196 29.9327 13.9533 29.976 13.728 29.976C13.2773 29.976 12.8613 29.7593 12.48 29.326C12.0987 28.91 11.7087 28.2773 11.31 27.428C10.9287 26.5613 10.5213 25.4953 10.088 24.23C9.672 22.9473 9.204 21.4567 8.684 19.758ZM4.758 30.106C4.09933 29.95 3.55333 29.6727 3.12 29.274C2.68667 28.8927 2.288 28.4073 1.924 27.818C2.08 27.4887 2.262 27.0553 2.47 26.518C2.69533 25.9807 2.964 25.322 3.276 24.542C3.588 23.7447 3.96067 22.8 4.394 21.708C4.82733 20.5987 5.33 19.3073 5.902 17.834C6.266 16.898 6.56067 16.1093 6.786 15.468C7.02867 14.8267 7.228 14.2027 7.384 13.596C7.55733 12.972 7.722 12.2873 7.878 11.542C8.034 10.7967 8.216 9.852 8.424 8.708C9.152 8.84667 9.81067 9.16733 10.4 9.67C11.0067 10.1727 11.5267 10.7793 11.96 11.49C11.7693 11.7327 11.544 12.1053 11.284 12.608C11.0413 13.0933 10.764 13.6827 10.452 14.376C10.14 15.0693 9.79333 15.8407 9.412 16.69C9.03067 17.5393 8.632 18.4407 8.216 19.394C7.28 21.474 6.54333 23.3807 6.006 25.114C5.46867 26.83 5.05267 28.494 4.758 30.106ZM27.2929 17.236C27.2236 18.3107 27.0329 19.238 26.7209 20.018C26.4089 20.7807 25.9582 21.4567 25.3689 22.046C24.7969 22.618 24.0949 23.138 23.2629 23.606C22.4309 24.074 21.4602 24.5247 20.3509 24.958C20.3509 25.062 20.3422 25.1747 20.3249 25.296C20.3249 25.4 20.3249 25.5127 20.3249 25.634C20.3249 25.8593 20.3422 26.0933 20.3769 26.336C20.4116 26.5787 20.4722 26.804 20.5589 27.012C20.6456 27.22 20.7669 27.3933 20.9229 27.532C21.0789 27.6533 21.2782 27.714 21.5209 27.714C21.9889 27.714 22.4482 27.61 22.8989 27.402C23.3496 27.194 23.7742 26.9427 24.1729 26.648C24.5889 26.336 24.9702 26.0067 25.3169 25.66C25.6809 25.296 26.0016 24.9667 26.2789 24.672C26.4522 24.828 26.5996 24.9753 26.7209 25.114C25.9409 26.154 25.0829 27.0207 24.1469 27.714C23.2282 28.39 22.3529 28.8233 21.5209 29.014C20.3249 28.8753 19.3889 28.442 18.7129 27.714C18.0542 26.9687 17.7249 26.076 17.7249 25.036C17.7249 24.3253 17.8202 23.606 18.0109 22.878C18.2189 22.1327 18.4962 21.422 18.8429 20.746C19.2069 20.0527 19.6229 19.4027 20.0909 18.796C20.5762 18.1893 21.0876 17.6607 21.6249 17.21C22.1796 16.7593 22.7429 16.404 23.3149 16.144C23.9042 15.884 24.4849 15.754 25.0569 15.754C25.8542 15.858 26.5996 16.352 27.2929 17.236ZM25.4989 18.094C25.0309 18.1633 24.5456 18.354 24.0429 18.666C23.5402 18.978 23.0636 19.394 22.6129 19.914C22.1796 20.434 21.7809 21.0407 21.4169 21.734C21.0529 22.4273 20.7669 23.1727 20.5589 23.97C21.9456 23.2767 23.0982 22.4273 24.0169 21.422C24.9356 20.3993 25.4296 19.29 25.4989 18.094ZM29.7489 18.796C29.7489 18.484 29.7662 18.1893 29.8009 17.912C29.8529 17.6347 29.9482 17.4007 30.0869 17.21C30.2255 17.002 30.4162 16.846 30.6589 16.742C30.9015 16.6207 31.2222 16.56 31.6209 16.56C31.8635 16.56 32.1322 16.586 32.4269 16.638C32.7389 16.69 32.9642 16.7853 33.1029 16.924C33.0335 17.2187 32.9729 17.4787 32.9209 17.704C32.8862 17.9293 32.8515 18.1807 32.8169 18.458C32.7995 18.718 32.7822 19.0387 32.7649 19.42C32.7475 19.784 32.7302 20.2607 32.7129 20.85C32.6782 22.0287 32.6175 23.086 32.5309 24.022C32.4615 24.9407 32.2882 25.8593 32.0109 26.778C32.0109 26.8473 32.0369 26.882 32.0889 26.882C32.3489 26.6913 32.6435 26.414 32.9729 26.05C33.3022 25.686 33.6489 25.2787 34.0129 24.828C34.3769 24.36 34.7409 23.866 35.1049 23.346C35.4689 22.826 35.8069 22.3147 36.1189 21.812C36.5349 21.084 36.9942 20.174 37.4969 19.082C37.9995 17.99 38.4155 16.82 38.7449 15.572C38.8489 15.572 38.9789 15.598 39.1349 15.65C39.3082 15.6847 39.4729 15.7367 39.6289 15.806C39.8022 15.858 39.9495 15.9187 40.0709 15.988C40.2095 16.0573 40.3049 16.118 40.3569 16.17C40.3222 16.9153 40.1402 17.678 39.8109 18.458C39.4989 19.238 39.1175 19.992 38.6669 20.72C38.2162 21.448 37.7395 22.1327 37.2369 22.774C36.7342 23.4153 36.2749 23.97 35.8589 24.438C35.0269 25.4087 34.1862 26.2753 33.3369 27.038C32.5049 27.8007 31.5082 28.5373 30.3469 29.248C29.8962 29.0747 29.5409 28.8407 29.2809 28.546C29.0209 28.2687 28.8909 27.974 28.8909 27.662C28.8909 27.454 28.9342 27.22 29.0209 26.96C29.1249 26.6827 29.2375 26.336 29.3589 25.92C29.4802 25.4867 29.5842 24.9493 29.6709 24.308C29.7749 23.6667 29.8269 22.852 29.8269 21.864C29.8269 21.292 29.8095 20.72 29.7749 20.148C29.7575 19.5587 29.7489 19.108 29.7489 18.796ZM39.9992 26.258C39.9992 26.102 40.0078 25.9113 40.0252 25.686C40.0598 25.4433 40.1118 25.1313 40.1812 24.75C40.2505 24.3513 40.3372 23.8747 40.4412 23.32C40.5625 22.7653 40.7098 22.098 40.8832 21.318C40.9178 21.1447 40.9958 20.8673 41.1172 20.486C41.2385 20.1047 41.3945 19.706 41.5852 19.29C41.7932 18.8567 42.0358 18.4407 42.3132 18.042C42.6078 17.6433 42.9545 17.3487 43.3532 17.158C43.6478 17.2273 44.0378 17.4093 44.5232 17.704C45.0085 17.9813 45.4245 18.3713 45.7712 18.874C45.3725 19.3247 45.0345 19.7753 44.7572 20.226C44.4972 20.6767 44.2545 21.1447 44.0292 21.63C43.8212 22.1153 43.6218 22.618 43.4312 23.138C43.2578 23.658 43.0585 24.204 42.8332 24.776C42.6425 25.2613 42.4692 25.764 42.3132 26.284C42.1572 26.7867 42.0705 27.2287 42.0532 27.61C42.0532 27.922 42.0445 28.1387 42.0272 28.26C42.0272 28.3987 41.9838 28.468 41.8972 28.468C41.8278 28.468 41.6892 28.4247 41.4812 28.338C41.2732 28.2513 41.0565 28.1213 40.8312 27.948C40.6232 27.7573 40.4325 27.5233 40.2592 27.246C40.0858 26.9687 39.9992 26.6393 39.9992 26.258ZM44.9652 14.974C44.9652 14.87 44.9912 14.714 45.0432 14.506C44.9565 14.4193 44.8785 14.2893 44.8092 14.116C44.7572 13.9427 44.7312 13.7867 44.7312 13.648C44.7312 13.492 44.7485 13.284 44.7832 13.024C44.8352 12.7467 44.8958 12.452 44.9652 12.14C45.0345 11.828 45.1212 11.5073 45.2252 11.178C45.3292 10.8313 45.4332 10.5193 45.5372 10.242C45.7452 10.242 45.9965 10.3027 46.2912 10.424C46.6032 10.528 46.9152 10.6753 47.2272 10.866C47.5392 11.0393 47.8252 11.2387 48.0852 11.464C48.3452 11.672 48.5445 11.8713 48.6832 12.062C48.4925 12.2527 48.2412 12.5213 47.9292 12.868C47.6172 13.1973 47.3138 13.5527 47.0192 13.934C46.7245 14.298 46.4558 14.6447 46.2132 14.974C45.9705 15.3033 45.8145 15.5373 45.7452 15.676C45.5372 15.6413 45.3552 15.5547 45.1992 15.416C45.0432 15.26 44.9652 15.1127 44.9652 14.974ZM50.3297 15.39C50.7804 15.5287 51.205 15.8407 51.6037 16.326C52.0024 16.794 52.297 17.314 52.4877 17.886C52.297 18.354 52.0024 18.9173 51.6037 19.576C51.205 20.2347 50.8064 20.9107 50.4077 21.604C50.009 22.28 49.645 22.93 49.3157 23.554C49.0037 24.1607 48.8217 24.6633 48.7697 25.062C49.047 24.7673 49.3504 24.4293 49.6797 24.048C50.0264 23.6493 50.3557 23.2593 50.6677 22.878C50.997 22.4793 51.3004 22.124 51.5777 21.812C51.855 21.4827 52.0717 21.24 52.2277 21.084C52.557 20.7373 52.947 20.3387 53.3977 19.888C53.8484 19.42 54.3164 18.9867 54.8017 18.588C55.3044 18.172 55.807 17.8253 56.3097 17.548C56.8124 17.2533 57.2717 17.106 57.6877 17.106C58.1384 17.106 58.511 17.262 58.8057 17.574C59.1177 17.8687 59.3604 18.1807 59.5337 18.51C59.5337 18.5447 59.4644 18.5967 59.3257 18.666C59.2044 18.718 59.0224 18.8827 58.7797 19.16C58.537 19.472 58.2597 19.9053 57.9477 20.46C57.653 20.9973 57.3584 21.5867 57.0637 22.228C56.7864 22.852 56.5524 23.4933 56.3617 24.152C56.171 24.8107 56.0757 25.4087 56.0757 25.946C56.0757 26.3793 56.1277 26.6567 56.2317 26.778C56.353 26.8993 56.5177 26.96 56.7257 26.96C56.9164 26.96 57.1157 26.9167 57.3237 26.83C57.5317 26.7433 57.6964 26.7 57.8177 26.7C57.887 26.7347 57.939 26.8127 57.9737 26.934C58.0257 27.038 58.0517 27.1333 58.0517 27.22C57.913 27.3413 57.7484 27.4627 57.5577 27.584C57.367 27.7053 57.1677 27.818 56.9597 27.922C56.7517 28.026 56.5437 28.1127 56.3357 28.182C56.145 28.2513 55.9717 28.286 55.8157 28.286C55.313 28.286 54.897 28.208 54.5677 28.052C54.2557 27.9133 54.0044 27.7227 53.8137 27.48C53.6404 27.2373 53.519 26.9513 53.4497 26.622C53.3804 26.2753 53.3457 25.9113 53.3457 25.53C53.3457 25.322 53.363 25.088 53.3977 24.828C53.4324 24.568 53.5017 24.2647 53.6057 23.918C53.7097 23.554 53.857 23.1293 54.0477 22.644C54.2384 22.1413 54.481 21.5433 54.7757 20.85C54.741 20.85 54.507 20.9713 54.0737 21.214C53.6404 21.4567 53.1724 21.8293 52.6697 22.332C51.855 23.112 51.1184 23.8833 50.4597 24.646C49.8184 25.4087 49.1597 26.258 48.4837 27.194C48.1024 27.7313 47.7644 28.182 47.4697 28.546C47.1924 28.9273 46.9497 29.1787 46.7417 29.3C46.3777 29.092 46.109 28.7973 45.9357 28.416C45.7624 28.052 45.6324 27.6707 45.5457 27.272C45.5457 26.9427 45.589 26.5267 45.6757 26.024C45.7797 25.5213 45.9097 24.9667 46.0657 24.36C46.239 23.736 46.447 23.086 46.6897 22.41C46.9324 21.734 47.201 21.058 47.4957 20.382C48.1544 18.8567 48.7524 17.6607 49.2897 16.794C49.8444 15.9273 50.191 15.4593 50.3297 15.39Z" fill="#FCFCFC"/>
</svg>
